<svg width="247" height="139" viewBox="0 0 247 139" fill="none" xmlns="http://www.w3.org/2000/svg">
<path d="M41.792 60V29.92L30.08 52.32H25.28L13.568 29.92V60H4.736V14.56H14.208L27.648 40.416L41.216 14.56H50.624V60H41.792ZM59.983 66.528C60.7083 66.7413 61.4123 66.8907 62.095 66.976C62.7777 67.104 63.3537 67.168 63.823 67.168C64.3777 67.168 64.8897 67.0613 65.359 66.848C65.8283 66.6347 66.255 66.2507 66.639 65.696C67.023 65.184 67.407 64.4587 67.791 63.52C68.175 62.5813 68.5803 61.408 69.007 60L55.759 26.464H64.591L73.679 52.576L81.743 26.464H89.807L75.727 66.656C74.9163 69.0027 73.5297 70.9227 71.567 72.416C69.6043 73.9093 67.1723 74.656 64.271 74.656C63.5883 74.656 62.8843 74.592 62.159 74.464C61.4763 74.3787 60.751 74.208 59.983 73.952V66.528Z" fill="white"/>
<path d="M74.792 124V93.92L63.08 116.32H58.28L46.568 93.92V124H37.736V78.56H47.208L60.648 104.416L74.216 78.56H83.624V124H74.792ZM101.119 124.64C99.4972 124.64 97.9825 124.384 96.5745 123.872C95.1665 123.317 93.9505 122.571 92.9265 121.632C91.9025 120.651 91.0918 119.52 90.4945 118.24C89.9398 116.96 89.6625 115.552 89.6625 114.016C89.6625 112.437 90.0038 110.987 90.6865 109.664C91.4118 108.299 92.3932 107.147 93.6305 106.208C94.9105 105.269 96.4252 104.544 98.1745 104.032C99.9238 103.477 101.844 103.2 103.935 103.2C105.428 103.2 106.879 103.328 108.287 103.584C109.737 103.84 111.017 104.203 112.127 104.672V102.752C112.127 100.533 111.487 98.8267 110.207 97.632C108.969 96.4373 107.113 95.84 104.639 95.84C102.847 95.84 101.097 96.16 99.3905 96.8C97.6838 97.44 95.9345 98.3787 94.1425 99.616L91.5185 94.176C95.8278 91.3173 100.479 89.888 105.471 89.888C110.292 89.888 114.025 91.0827 116.671 93.472C119.359 95.8187 120.703 99.232 120.703 103.712V114.144C120.703 115.04 120.852 115.68 121.151 116.064C121.492 116.448 122.025 116.661 122.751 116.704V124C121.3 124.299 120.041 124.448 118.975 124.448C117.353 124.448 116.095 124.085 115.199 123.36C114.345 122.635 113.812 121.675 113.599 120.48L113.407 118.624C111.913 120.587 110.1 122.08 107.967 123.104C105.833 124.128 103.551 124.64 101.119 124.64ZM103.551 118.368C105.001 118.368 106.367 118.112 107.647 117.6C108.969 117.088 109.993 116.405 110.719 115.552C111.657 114.827 112.127 114.016 112.127 113.12V109.28C111.103 108.896 109.993 108.597 108.799 108.384C107.604 108.128 106.452 108 105.343 108C103.124 108 101.311 108.512 99.9025 109.536C98.4945 110.517 97.7905 111.776 97.7905 113.312C97.7905 114.763 98.3452 115.979 99.4545 116.96C100.564 117.899 101.929 118.368 103.551 118.368ZM148.685 97.888C146.082 97.9307 143.757 98.4427 141.708 99.424C139.661 100.363 138.189 101.792 137.293 103.712V124H128.717V90.464H136.589V97.632C137.186 96.48 137.89 95.456 138.701 94.56C139.511 93.6213 140.386 92.8107 141.325 92.128C142.263 91.4453 143.202 90.9333 144.141 90.592C145.122 90.208 146.061 90.016 146.957 90.016C147.426 90.016 147.767 90.016 147.981 90.016C148.237 90.016 148.471 90.0373 148.685 90.08V97.888ZM176.379 124L166.651 109.472L162.043 114.016V124H153.467V77.28H162.043V105.632L175.483 90.528H184.635L172.155 104.736L185.531 124H176.379ZM202.956 124.64C200.268 124.64 197.836 124.192 195.66 123.296C193.484 122.357 191.628 121.099 190.092 119.52C188.556 117.941 187.361 116.107 186.508 114.016C185.697 111.925 185.292 109.728 185.292 107.424C185.292 105.035 185.697 102.795 186.508 100.704C187.319 98.5707 188.492 96.7147 190.028 95.136C191.564 93.5147 193.42 92.2347 195.596 91.296C197.815 90.3573 200.289 89.888 203.02 89.888C205.751 89.888 208.183 90.3573 210.316 91.296C212.492 92.2347 214.327 93.4933 215.82 95.072C217.356 96.6507 218.508 98.4853 219.276 100.576C220.087 102.667 220.492 104.843 220.492 107.104C220.492 107.659 220.471 108.192 220.428 108.704C220.428 109.216 220.385 109.643 220.3 109.984H194.38C194.508 111.307 194.828 112.48 195.34 113.504C195.852 114.528 196.513 115.403 197.324 116.128C198.135 116.853 199.052 117.408 200.076 117.792C201.1 118.176 202.167 118.368 203.276 118.368C204.983 118.368 206.583 117.963 208.076 117.152C209.612 116.299 210.657 115.189 211.212 113.824L218.572 115.872C217.335 118.432 215.351 120.544 212.62 122.208C209.932 123.829 206.711 124.64 202.956 124.64ZM211.66 104.416C211.447 101.899 210.508 99.8933 208.844 98.4C207.223 96.864 205.239 96.096 202.892 96.096C201.74 96.096 200.652 96.3093 199.628 96.736C198.647 97.12 197.772 97.6747 197.004 98.4C196.236 99.1253 195.596 100 195.084 101.024C194.615 102.048 194.337 103.179 194.252 104.416H211.66ZM245.563 122.272C244.411 122.784 243.003 123.296 241.339 123.808C239.675 124.32 237.925 124.576 236.091 124.576C234.896 124.576 233.765 124.427 232.699 124.128C231.675 123.829 230.757 123.36 229.947 122.72C229.179 122.037 228.56 121.184 228.091 120.16C227.621 119.093 227.387 117.813 227.387 116.32V97.056H222.971V90.464H227.387V79.584H235.963V90.464H243.003V97.056H235.963V113.44C235.963 114.635 236.261 115.488 236.859 116C237.499 116.469 238.267 116.704 239.163 116.704C240.059 116.704 240.933 116.555 241.787 116.256C242.64 115.957 243.323 115.701 243.835 115.488L245.563 122.272Z" fill="white"/>
</svg>
